<?xml version="1.0" standalone="no"?>
<!DOCTYPE svg PUBLIC "-//W3C//DTD SVG 20010904//EN"
 "http://www.w3.org/TR/2001/REC-SVG-20010904/DTD/svg10.dtd">
<svg version="1.0" xmlns="http://www.w3.org/2000/svg"
 width="255.000000pt" height="255.000000pt" viewBox="0 0 255.000000 255.000000"
 preserveAspectRatio="xMidYMid meet">
<metadata>
Created by potrace 1.11, written by Peter Selinger 2001-2013
</metadata>
<g transform="translate(0.000000,255.000000) scale(0.100000,-0.100000)"
fill="#000000" stroke="none">
<path d="M775 2065 c-17 -8 -57 -36 -90 -62 l-60 -47 38 -8 c77 -16 179 -83
294 -192 l65 -61 -67 -84 c-137 -174 -301 -439 -366 -591 -35 -84 -69 -209
-69 -257 0 -44 19 -79 68 -126 l39 -38 6 56 c13 126 153 331 392 571 82 83
174 170 204 193 l53 41 52 -42 c28 -23 119 -109 201 -192 238 -238 383 -450
393 -574 l5 -54 39 39 c49 47 68 82 68 126 0 49 -34 173 -70 258 -62 148 -226
414 -364 589 l-66 85 64 61 c112 108 216 176 293 192 l38 8 -60 47 c-33 26
-75 54 -94 63 -73 35 -259 -4 -428 -90 l-73 -36 -72 36 c-172 87 -362 126
-433 89z"/>
</g>
</svg>
